<?xml version="1.0" encoding="utf-8"?>
<!-- Generator: Adobe Illustrator 22.1.0, SVG Export Plug-In . SVG Version: 6.00 Build 0)  -->
<svg version="1.0" id="图层_1" xmlns="http://www.w3.org/2000/svg" xmlns:xlink="http://www.w3.org/1999/xlink" x="0px" y="0px"
	 viewBox="0 0 399 120" style="enable-background:new 0 0 399 120;" xml:space="preserve">
<style type="text/css">
	.st0{fill:#FFFFFF;}
	.st1{fill-rule:evenodd;clip-rule:evenodd;fill:#FFFFFF;}
</style>
<path class="st0" d="M13.5,82.3l-2-4.9l0.3-0.1c0.2,0.6,0.5,0.8,0.9,0.6l4.1-1.7c0.4-0.1,0.5-0.5,0.2-1.1l0.3-0.1l1.3,3.1l-0.3,0.1
	c-0.2-0.6-0.5-0.8-0.9-0.6l-4,1.7c-0.4,0.1-0.5,0.4-0.3,0.8c0.4,0.8,1.3,1.2,2.6,1l0.2,0.4L13.5,82.3L13.5,82.3z"/>
<path class="st0" d="M18.3,85.5l1.3-1.7l-2.1,0.3L18.3,85.5L18.3,85.5z M15.4,85.8l-1.3-2.2l0.3-0.2c0.3,0.4,0.8,0.5,1.6,0.4
	l5.3-0.7l0.2,0.4l-3.5,4.9c-0.3,0.3-0.3,0.7-0.1,1.1l-0.3,0.2L16,86.7l0.3-0.2l0.2,0.3c0.2,0.3,0.4,0.4,0.6,0.3c0,0,0.1-0.1,0.2-0.2
	c0,0,0.1,0,0.1-0.1L18,86l-1-1.7l-0.8,0.1c-0.2,0-0.3,0-0.6,0.2c-0.2,0.1-0.3,0.4-0.1,0.7l0.2,0.4L15.4,85.8L15.4,85.8z"/>
<path class="st0" d="M23,86.7l0.3-0.2l1.4,1.7l-1.4,5.2l0,0l2.5-2.1c0.3-0.2,0.3-0.6-0.1-1.2l0.3-0.2l1.5,1.8l-0.3,0.2
	c-0.4-0.4-0.8-0.5-1.1-0.2l-4.1,3.3l-0.5-0.7l1.6-5.9l0,0L20,91c-0.4,0.2-0.3,0.6,0.2,1.2l-0.3,0.2l-1.6-1.9l0.3-0.2
	c0.4,0.5,0.7,0.6,1,0.3l3.4-2.8C23.4,87.6,23.4,87.2,23,86.7L23,86.7z"/>
<path class="st0" d="M29,98.3l-1.7,1.8l-3.6-3.4l0.3-0.3l6.1-1.8l-0.5-0.4c-1-0.9-1.9-0.9-2.7-0.1l-0.3-0.3l1.5-1.6l3.4,3.2
	l-0.4,0.5l-5.9,1.7c1.2,1.2,2.4,1.4,3.5,0.4L29,98.3L29,98.3z"/>
<path class="st0" d="M32.6,99.7l1.7,1.2l1-1.5c0.3-0.3,0.2-0.7-0.3-1l0.2-0.3l2.7,1.8l-0.2,0.3c-0.5-0.4-0.9-0.4-1.1,0l-2.5,3.6
	c-0.3,0.3-0.2,0.7,0.4,1l-0.2,0.3l-2.7-1.8l0.2-0.3c0.4,0.4,0.8,0.3,1-0.1l1.2-1.8l-1.7-1.2l-1.2,1.8c-0.3,0.3-0.2,0.7,0.3,1
	l-0.2,0.3l-2.6-1.8l0.2-0.3c0.5,0.4,0.8,0.4,1.1,0l2.5-3.6c0.3-0.3,0.1-0.7-0.4-1l0.2-0.3l2.6,1.8l-0.2,0.3c-0.5-0.3-0.8-0.3-1,0.1
	L32.6,99.7L32.6,99.7z"/>
<path class="st0" d="M38.6,103.9c-0.9,1.7-0.8,2.8,0.1,3.2c0.9,0.4,1.7-0.2,2.6-1.9c0.8-1.7,0.8-2.8-0.1-3.2
	C40.3,101.5,39.4,102.2,38.6,103.9L38.6,103.9z M37.1,103.1c1-1.7,2.5-2.2,4.4-1.6c1.6,1,2.1,2.5,1.5,4.4c-1,1.7-2.5,2.2-4.3,1.5
	C36.9,106.4,36.4,105,37.1,103.1L37.1,103.1z"/>
<path class="st0" d="M44.8,103.3l3.1,0.9l-0.1,0.3c-0.6-0.2-1-0.1-1.1,0.3l-1.1,3.6c-0.2,0.7,0.1,1.3,0.9,1.6c1,0.3,1.7-0.1,2-1.1
	l1-3.2c0.2-0.4-0.1-0.7-0.8-1l0.1-0.3l2.2,0.7l-0.1,0.3c-0.6-0.1-1,0.1-1,0.4l-1,3.1c-0.4,1.3-1.4,1.7-2.9,1.2
	c-1.5-0.5-2.1-1.3-1.8-2.4l1.1-3.5c0.1-0.4-0.1-0.7-0.7-0.8L44.8,103.3L44.8,103.3z"/>
<path class="st0" d="M57.9,106.2l3.2,0l0,0.4c-0.7,0-1,0.2-0.9,0.6l0,3.8c0,0.8,0.5,1.2,1.3,1.3c1,0,1.6-0.5,1.6-1.6l0-3.4
	c0-0.4-0.3-0.7-1-0.7l0-0.4l2.3,0l0,0.4c-0.6,0.1-0.9,0.3-0.9,0.7l0,3.3c0,1.3-0.8,2-2.4,2c-1.6,0-2.4-0.6-2.4-1.8l0-3.6
	c0-0.4-0.3-0.6-0.9-0.6L57.9,106.2L57.9,106.2z"/>
<path class="st0" d="M64.8,106.5l-0.1-0.4l2.2-0.3l3.7,3.8l0,0l-0.5-3.2c0-0.4-0.4-0.6-1.1-0.6l-0.1-0.4l2.3-0.3l0.1,0.4
	c-0.6,0.2-0.8,0.4-0.7,0.8l0.8,5.2l-0.9,0.1l-4.2-4.4l0,0l0.6,3.9c0,0.5,0.4,0.6,1.2,0.5l0.1,0.4l-2.5,0.4l-0.1-0.4
	c0.6,0,0.9-0.3,0.8-0.7l-0.6-4.4C65.8,106.6,65.5,106.4,64.8,106.5L64.8,106.5z"/>
<path class="st0" d="M77.1,110.2l-3.2,0.9l-0.1-0.3c0.6-0.1,0.9-0.4,0.7-0.8l-1.2-4.2c-0.1-0.4-0.4-0.5-1-0.4l-0.1-0.3l3.2-0.9
	l0.1,0.3c-0.6,0.1-0.9,0.4-0.7,0.8l1.2,4.2c0.1,0.5,0.4,0.6,1,0.4L77.1,110.2L77.1,110.2z"/>
<path class="st0" d="M76.1,104.2l-0.1-0.3l2.9-1.2l0.1,0.3c-0.6,0.2-0.8,0.4-0.6,0.6c-0.1,0,0.7,1,2.6,3.1l0,0c0-0.1,0-0.3,0-0.6
	c-0.1-2.5-0.1-3.6-0.2-3.3c-0.1-0.3-0.4-0.4-0.9-0.2l-0.1-0.3l1.9-0.8l0.1,0.3c-0.4,0.2-0.6,0.5-0.5,0.9l0.2,5.7l-0.7,0.3l-3.6-4.3
	C76.8,104.1,76.5,104,76.1,104.2L76.1,104.2z"/>
<path class="st0" d="M86.8,98.7l1.2,1.9l-0.3,0.2c-0.9-0.9-1.8-1-2.8-0.5c-0.5,0.3-0.6,0.5-0.4,0.9l0.9,1.6c0.7-0.3,1-0.9,0.7-1.7
	l0.3-0.2l1.3,2.2l-0.3,0.2c-0.5-0.6-1.1-0.7-1.8-0.2l1.1,1.8c0.2,0.4,0.5,0.4,0.9,0.1c1-0.6,1.3-1.6,1-2.9l0.3-0.2l1.1,2.1l-5.1,2.9
	l-0.2-0.3c0.6-0.3,0.7-0.6,0.5-1l-2.2-3.8c-0.2-0.4-0.6-0.4-1.1-0.1l-0.2-0.3L86.8,98.7L86.8,98.7z"/>
<path class="st0" d="M90.2,97.4l1.2,1.6c0.9-0.7,1.1-1.3,0.5-2c-0.5-0.6-1.1-0.7-1.6-0.4C90,96.8,89.9,97.1,90.2,97.4L90.2,97.4z
	 M95.4,98.4l0.3-0.2c0.6,0.8,0.5,1.4-0.2,2c-0.7,0.6-1.4,0.5-2-0.3C93,99.3,92.7,99,92.5,99c-0.2-0.1-0.5,0-0.9,0.3l1.2,1.5
	c0.3,0.5,0.7,0.5,1.2,0l0.2,0.3l-2.6,2l-0.2-0.3c0.5-0.4,0.6-0.7,0.3-1L89,98.3c-0.2-0.4-0.6-0.3-1.1,0.1l-0.2-0.3l2.6-2
	c1.2-0.9,2.2-1,2.9-0.1c0.6,0.8,0.3,1.7-0.8,2.6l0,0c0.7-0.4,1.4-0.4,2.1,0.1c0.7,0.5,1,0.7,1.1,0.5C95.7,99,95.6,98.8,95.4,98.4
	L95.4,98.4z"/>
<path class="st0" d="M97.8,98.1L96,96.4l0.3-0.3c1.3,0.7,2.3,0.7,2.9,0c0.5-0.6,0.6-1.1,0.1-1.6c-0.3-0.3-0.9-0.2-1.9,0.3
	c-1.3,0.7-2.2,0.7-2.8,0.2c-0.9-0.9-0.9-1.9,0-3c0.3-0.3,0.7-0.5,1.1-0.7c0.2-0.1,0.3-0.1,0.3-0.2c0.1-0.1,0.1-0.2,0-0.5l0.2-0.3
	l1.6,1.5l-0.3,0.3c-1.1-0.6-2-0.6-2.6,0c-0.4,0.5-0.5,1-0.1,1.4c0.3,0.3,0.9,0.2,1.8-0.3c1.3-0.7,2.3-0.8,3-0.2
	c0.8,0.9,0.8,1.9-0.1,3c-0.4,0.4-0.8,0.7-1.3,0.9c-0.2,0.1-0.3,0.1-0.3,0.1c-0.1,0.1-0.1,0.3,0,0.5L97.8,98.1L97.8,98.1z"/>
<path class="st0" d="M104.4,90.4l-2,2.7l-0.3-0.2c0.4-0.5,0.4-0.8,0.1-1.1l-3.5-2.7c-0.3-0.3-0.7-0.2-1,0.3l-0.3-0.2l2-2.7l0.3,0.2
	c-0.4,0.5-0.4,0.9-0.1,1.1l3.5,2.7c0.3,0.3,0.7,0.2,1-0.3L104.4,90.4L104.4,90.4z"/>
<path class="st0" d="M99.9,85.9l3-5.1l1.9,1.1l-0.2,0.4c-1.2-0.4-2-0.2-2.5,0.6l4.3,2.5c0.4,0.3,0.7,0.1,1-0.6l0.3,0.2l-1.8,3.1
	l-0.3-0.2c0.4-0.6,0.4-1,0-1.2l-4.3-2.5c-0.5,0.8-0.3,1.6,0.6,2.5l-0.2,0.4L99.9,85.9L99.9,85.9z"/>
<path class="st0" d="M103.4,80.5l-0.3-0.1l1.2-2.8l0.3,0.1c-0.2,0.5-0.2,0.7,0,0.8c0.1,0,0.2,0,0.4,0.1c0.1,0,0.1,0,0.1,0l2.1-0.2
	l-1.3-1.5c-0.2-0.2-0.3-0.3-0.4-0.3c-0.2-0.1-0.5,0.1-0.7,0.6l-0.3-0.1l0.9-2.2l0.3,0.1c-0.2,0.6-0.1,1,0.2,1.2l2,2.3l1.5,0.6
	c0.4,0.2,0.7,0,1-0.7l0.3,0.1l-1.4,3.3l-0.3-0.1c0.3-0.7,0.3-1.1-0.2-1.2l-1.6-0.7l-2.6,0.2C104,80,103.5,80.2,103.4,80.5
	L103.4,80.5z"/>
<path class="st1" d="M12.4,61.8c1,0,1.8-0.8,1.8-1.7c0-1-0.9-1.8-1.8-1.8c-1,0-1.8,0.9-1.8,1.8C10.6,61,11.4,61.8,12.4,61.8
	L12.4,61.8z"/>
<path class="st1" d="M110.2,61.8c1,0,1.7-0.8,1.7-1.7c0-1-0.8-1.8-1.7-1.8c-1,0-1.8,0.9-1.8,1.8C108.3,61,109.2,61.8,110.2,61.8
	L110.2,61.8z"/>
<path class="st1" d="M61.3,0c33.1,0,60,26.9,60,60s-26.9,60-60,60c-33.1,0-60-26.9-60-60S28.2,0,61.3,0L61.3,0z M61.3,1.6
	c32.2,0,58.4,26.1,58.4,58.4s-26.1,58.4-58.4,58.4C29.1,118.4,3,92.2,3,60S29.1,1.6,61.3,1.6L61.3,1.6z"/>
<path class="st1" d="M61.3,19.1c22.6,0,40.9,18.3,40.9,40.9c0,22.6-18.3,40.9-40.9,40.9c-22.6,0-40.9-18.3-40.9-40.9
	C20.5,37.4,38.8,19.1,61.3,19.1L61.3,19.1z M61.3,20.2c22,0,39.8,17.8,39.8,39.8S83.3,99.8,61.3,99.8c-21.9,0-39.8-17.8-39.8-39.8
	S39.4,20.2,61.3,20.2L61.3,20.2z"/>
<path class="st1" d="M95.6,56.7h-3.2V60h3.2V56.7L95.6,56.7z M60.7,32h0.4v-0.8h0.2h0.2V32H62v0.8h-0.4v1.7l0.2,0.7v2.2l0.7,0.8v3.7
	h0.9v6.9h1v-0.9h1.1v4h14.9v-2.3h0.8v0.7h2.7l0-0.7h0.8V52h11.7v15.7H26.2V52h11.7v-2.4h0.8l0,0.7h2.7v-0.7h0.8V52h14.9v-4h1.1v0.9
	h1v-6.9h0.9v-3.7l0.7-0.8v-2.2l0.2-0.7v-1.7h-0.4V32L60.7,32z M95.6,60.3h-4.3V63h4.3V60.3L95.6,60.3z M95.6,63.3h-5v2.2h1.7v-1.6
	h0.9v1.6h0.7v1.3h1.7V63.3L95.6,63.3z M84,56.7h3.7V60H84V56.7L84,56.7z M84,60.3h4.9V63H84V60.3L84,60.3z M84,63.3h5.7v2.2h-1.9
	v-1.6h-1v1.6h-0.5v1.3H84V63.3L84,63.3z M84,53.6h3.7v2.8H84V53.6L84,53.6z M91.6,53.7h-3.1v6.1h1v2.6h1.4v-2.6h0.8V53.7L91.6,53.7z
	 M84,51.1h-2.7V52H84V51.1L84,51.1z M83.2,53.2H81v13.5h2.2V53.2L83.2,53.2z M65.1,56.2h-1v1.6h1V56.2L65.1,56.2z M80.1,56.2h-0.9
	v1.9h-1.1v-1.9h-1v1.9c-0.4,0-0.8,0-1.1,0v-1.9h-1v1.9c-0.4,0-0.8,0-1.1,0v-1.9h-1v1.9c-0.4,0-0.8,0-1.1,0v-1.9h-1v1.9
	c-0.4,0-0.8,0-1.1,0v-1.9h-1v1.9c-0.4,0-0.8,0-1.1,0v-1.9h-1v1.6h0.3v0.8h13.6V56.2L80.1,56.2z M78.4,59h-1.7v3h1.7V59L78.4,59z
	 M76.5,59h-1.7v3h1.7V59L76.5,59z M74.6,59h-1.7v3h1.7V59L74.6,59z M80.1,59h-1.4v3h1.4V59L80.1,59z M80.1,62.3H67.7v4.5h4.6V63h0.9
	v3.7h1.1V63h0.9v3.7h1.1V63h0.9v3.7h1.1V63H79v3.7h1.1V62.3L80.1,62.3z M95.6,53.6h-3.2v2.8h3.2V53.6L95.6,53.6z M61.9,57.8v-1.6h1
	v1.6H61.9L61.9,57.8z M27.1,56.7h3.2V60h-3.2V56.7L27.1,56.7z M27.1,60.3h4.3V63h-4.3V60.3L27.1,60.3z M27.1,63.3h5v2.2h-1.7v-1.6
	h-0.9v1.6h-0.7v1.3h-1.7V63.3L27.1,63.3z M38.7,56.7H35V60h3.7V56.7L38.7,56.7z M38.7,60.3h-4.9V63h4.9V60.3L38.7,60.3z M38.7,63.3
	H33v2.2h1.9v-1.6h1v1.6h0.5v1.3h2.2V63.3L38.7,63.3z M38.7,53.6H35v2.8h3.7V53.6L38.7,53.6z M31.1,53.7h3.1v6.1h-1v2.6h-1.4v-2.6
	h-0.8V53.7L31.1,53.7z M38.7,51.1h2.7V52h-2.7V51.1L38.7,51.1z M39.5,53.2h2.2v13.5h-2.2V53.2L39.5,53.2z M57.6,56.2h1v1.6h-1V56.2
	L57.6,56.2z M42.5,56.2h0.9v1.9h1.1v-1.9h1v1.9c0.4,0,0.8,0,1.1,0v-1.9h1v1.9c0.4,0,0.8,0,1.1,0v-1.9h1v1.9c0.4,0,0.8,0,1.1,0v-1.9
	h1v1.9c0.4,0,0.8,0,1.1,0v-1.9h1v1.9c0.4,0,0.8,0,1.1,0v-1.9h1v1.6h-0.3v0.8H42.5V56.2L42.5,56.2z M44.3,59h1.7v3h-1.7V59L44.3,59z
	 M46.2,59h1.7v3h-1.7V59L46.2,59z M48.1,59h1.7v3h-1.7V59L48.1,59z M42.5,59H44v3h-1.4V59L42.5,59z M42.5,62.3H55v4.5h-4.6V63h-0.9
	v3.7h-1.1V63h-0.9v3.7h-1.1V63h-0.9v3.7h-1.1V63h-0.9v3.7h-1.1V62.3L42.5,62.3z M27.1,53.6h3.2v2.8h-3.2V53.6L27.1,53.6z M60.8,57.8
	v-1.6h-1v1.6H60.8L60.8,57.8z M62,41.9v-3.1l-0.6-0.4l-0.6,0.4v3.1H62L62,41.9z M62.6,48.8v-5.9h-2.4v5.9H62.6L62.6,48.8z M64.4,52
	v-2.1h-6.2V52H64.4L64.4,52z M61.3,53.4c0.3,0,0.6,0.3,0.6,0.6v0.2h1.1v-0.2c0-0.3,0.2-0.6,0.6-0.6l0,0c0.3,0,0.6,0.3,0.6,0.6v0.2
	h1.1v-0.2c0-0.3,0.2-0.6,0.6-0.6l0,0c0.3,0,0.6,0.3,0.6,0.6v0.2h1.1v-0.2c0-0.3,0.2-0.6,0.6-0.6l0,0c0.3,0,0.6,0.3,0.6,0.6v0.2h1.1
	v-0.2c0-0.3,0.2-0.6,0.6-0.6l0,0c0.3,0,0.6,0.3,0.6,0.6v0.2h1.1v-0.2c0-0.3,0.2-0.6,0.6-0.6l0,0c0.3,0,0.6,0.3,0.6,0.6v0.2h1.1v-0.2
	c0-0.3,0.2-0.6,0.6-0.6l0,0c0.3,0,0.6,0.3,0.6,0.6v0.2h1.1v-0.2c0-0.3,0.2-0.6,0.6-0.6l0,0c0.3,0,0.6,0.3,0.6,0.6v0.2h1.1v-0.2
	c0-0.3,0.2-0.6,0.6-0.6l0,0c0.3,0,0.6,0.3,0.6,0.6v0.2h1v-1.3H42.5v1.3h1v-0.2c0-0.3,0.2-0.6,0.6-0.6l0,0c0.3,0,0.6,0.3,0.6,0.6v0.2
	h1.1v-0.2c0-0.3,0.2-0.6,0.6-0.6l0,0c0.3,0,0.6,0.3,0.6,0.6v0.2h1.1v-0.2c0-0.3,0.2-0.6,0.6-0.6l0,0c0.3,0,0.6,0.3,0.6,0.6v0.2H50
	v-0.2c0-0.3,0.2-0.6,0.6-0.6l0,0c0.3,0,0.6,0.3,0.6,0.6v0.2h1.1v-0.2c0-0.3,0.2-0.6,0.6-0.6l0,0c0.3,0,0.6,0.3,0.6,0.6v0.2h1.1v-0.2
	c0-0.3,0.2-0.6,0.6-0.6l0,0c0.3,0,0.6,0.3,0.6,0.6v0.2h1.1v-0.2c0-0.3,0.2-0.6,0.6-0.6l0,0c0.3,0,0.6,0.3,0.6,0.6v0.2h1.1v-0.2
	c0-0.3,0.2-0.6,0.6-0.6l0,0c0.3,0,0.6,0.3,0.6,0.6v0.2h1.1v-0.2C60.8,53.6,61,53.4,61.3,53.4L61.3,53.4L61.3,53.4L61.3,53.4z
	 M80.1,56v-1.6h-1v1.1h-1.1v-1.1H77v1.1c-0.4,0-0.7,0-1.1,0v-1.1h-1.1v1.1c-0.4,0-0.7,0-1.1,0v-1.1h-1.1v1.1c-0.4,0-0.7,0-1.1,0
	v-1.1h-1.1v1.1c-0.4,0-0.7,0-1.1,0v-1.1h-1.1v1.1c-0.4,0-0.7,0-1.1,0v-1.1h-1.1v1.1c-0.4,0-0.7,0-1.1,0v-1.1h-1.1v1.1
	c-0.4,0-0.7,0-1.1,0v-1.1h-1.1v1.1h-1.1v-1.1h-1.1v1.1c-0.4,0-0.7,0-1.1,0v-1.1h-1.1v1.1c-0.4,0-0.7,0-1.1,0v-1.1h-1.1v1.1
	c-0.4,0-0.7,0-1.1,0v-1.1h-1.1v1.1c-0.4,0-0.7,0-1.1,0v-1.1h-1.1v1.1c-0.4,0-0.7,0-1.1,0v-1.1h-1.1v1.1c-0.4,0-0.7,0-1.1,0v-1.1
	h-1.1v1.1c-0.4,0-0.7,0-1.1,0v-1.1h-1.1v1.1h-1.1v-1.1h-1V56H80.1L80.1,56z M65,58.8l2.6,1.9V62h4.9v-3h-6.3v-0.9h-9.8V59h-6.3v3H55
	v-1.3l2.6-1.9H65L65,58.8z M62.5,60.4c1,0,1.8,0.9,1.8,2v4.3h0.9v-6L64.5,60h-6.4l-0.8,0.8v6h0.9v-4.3c0-1.1,0.8-2,1.8-2H62.5
	L62.5,60.4z M63,62.4v4.3h0.6v-4.6c0-0.6-0.5-1.1-1.1-1.1h-2.4c-0.6,0-1.1,0.5-1.1,1.1v4.6h0.6v-4.3H63L63,62.4z M62.4,66.7v-3.1
	c0-0.1-0.2-0.2-0.4-0.2h-1.3c-0.2,0-0.4,0.1-0.4,0.2v3.1H62.4L62.4,66.7z M56.5,69.7h9.7v0.9h-9.7V69.7L56.5,69.7z M54.9,71h12.9
	v0.9H54.9V71L54.9,71z M58.2,68.4h6.2v0.9h-6.2V68.4L58.2,68.4z"/>
<path class="st0" d="M50.5,82.7v-1.3c0.6-0.2,1.2-0.6,1.8-1h1.4v6.7h-1.5v-5.2C51.6,82.2,51.1,82.5,50.5,82.7L50.5,82.7z M55.6,85.4
	h1.5c0.1,0.5,0.3,0.8,0.7,0.8c0.8,0,1.2-0.7,1.1-2.1c-0.2,0.2-0.4,0.3-0.6,0.3c-0.2,0.1-0.5,0.1-0.8,0.1c-1.3-0.1-2-0.8-2.1-2
	c0.1-1.4,0.9-2.2,2.5-2.3c1.7,0,2.5,1,2.5,3c0.1,2.7-0.8,4-2.6,4C56.4,87.2,55.7,86.6,55.6,85.4L55.6,85.4z M57.1,82.4
	c0,0.8,0.3,1.1,1,1.1c0.6,0,0.9-0.4,0.9-1.1c0-0.8-0.3-1.2-0.9-1.2C57.4,81.2,57.1,81.6,57.1,82.4L57.1,82.4z M64.9,83.7
	c0-1.7-0.3-2.5-0.9-2.5c-0.6,0-0.9,0.9-0.9,2.5c0,1.7,0.3,2.5,0.9,2.5C64.6,86.2,64.9,85.4,64.9,83.7L64.9,83.7z M66.4,83.7
	c0,2.3-0.9,3.4-2.5,3.5c-1.6,0-2.4-1.2-2.4-3.5c0-2.3,0.9-3.5,2.4-3.5C65.6,80.3,66.4,81.4,66.4,83.7L66.4,83.7z M67.3,85.4h1.5
	c0.1,0.5,0.3,0.8,0.7,0.8c0.8,0,1.2-0.7,1.1-2.1c-0.2,0.2-0.4,0.3-0.6,0.3c-0.2,0.1-0.5,0.1-0.8,0.1c-1.3-0.1-2-0.8-2.1-2
	c0.1-1.4,0.9-2.2,2.5-2.3c1.7,0,2.5,1,2.5,3c0.1,2.7-0.8,4-2.6,4C68.1,87.2,67.3,86.6,67.3,85.4L67.3,85.4z M68.7,82.4
	c0,0.8,0.3,1.1,1,1.1c0.6,0,0.9-0.4,0.9-1.1c0-0.8-0.3-1.2-0.9-1.2C69.1,81.2,68.8,81.6,68.7,82.4L68.7,82.4z"/>
<path class="st1" d="M39.8,14.8c0-0.1,0.2-0.1,0.3-0.2c0.1,0,0.2-0.1,0.2-0.1c0.1,0,0.1,0,0.4,0.1c0.2,0.1,0.4,0.1,0.5,0.1
	c0.1-0.1,0.2-0.1,0.3-0.2c0,0,0-0.2,0.1-0.3c0-0.1,0.1-0.2,0.1-0.4c0-0.1,0-0.3,0-0.3c0-0.1,0.1-0.4,0.2-0.5
	c0.1-0.1,0.5-0.3,1.1-0.4c0,0,0.2,0,0.2,0.2c0,0.1,0.2,0.5,0.2,0.6c0,0.1,0.1,0.1,0.2,0.1c0.1,0,0.3,0,0.4-0.2
	c0.1-0.2,0.2-0.5,0.3-0.7c0.1-0.2,0.1-0.4,0.1-0.5c0-0.1,0-0.4,0.1-0.5c0.1-0.1,0.2-0.2,0.4-0.3c0.2-0.1,0.4-0.1,0.5-0.1
	c0.1,0,0.2,0,0.2,0s0.1,0.1,0.2,0.2c0,0.1,0.1,0.3,0.1,0.3c0,0,0.3,0.3,0.6,0.1c0,0,0.1-0.1,0.2-0.1c0,0,0.1-0.2,0.2-0.4
	c0.1-0.3,0.1-0.4,0.1-0.6c0-0.2,0.1-0.6,0.2-0.8c0.1-0.2,0.2-0.3,0.3-0.4c0.1-0.1,0.3-0.4,0.4-0.4c0.4-0.2,0.6,0,1.1,0.1
	c0.2,0,0.3,0.1,0.4,0.2c0.1,0.1,0.1,0.1,0.1,0.1c0,0,0,0.6-0.2,0.9c0,0,0,0.2,0,0.3c0,0.1,0.1,0.2,0.1,0.3c0,0.1,0.1,0.3,0.1,0.4
	c0,0,0,0.1,0,0.2c0,0.1,0.1,0.3,0.2,0.4c0.1,0.1,0.1,0.3,0.2,0.4c0,0.1,0.1,0.1,0.1,0.1c0.1,0.1,0.1,0.2,0.1,0.3c0,0,0,0.1,0,0.2
	c0,0.1,0,0.2,0,0.3c0,0.1,0,0.2,0.1,0.3c0,0,0.2,0.1,0.2,0.1c0.2,0.2,0.6,0.8,0.6,1c0,0.2-0.3,0.5-0.3,0.6c-0.1,0.1-0.2,0.7-0.3,0.8
	c-0.1,0.1-0.4,0.2-0.5,0.1c-0.1,0-0.3-0.2-0.3-0.2L49,15.9L48.7,16c0,0,0-0.1,0-0.2c0-0.1,0-0.3,0-0.5c0-0.2-0.2-0.9-0.3-1.2
	c0,0,0-0.4-0.1-0.7c-0.1-0.3-0.3-0.7-0.4-0.9c0-0.2,0-0.5,0-0.6c0-0.1,0-0.5-0.1-0.8c-0.1-0.2-0.2-0.2-0.3-0.2
	c-0.1,0-0.1,0.2-0.2,0.3c0,0.1-0.2,0.5-0.1,1c0,0,0,0.2,0.2,0.3c0.1,0,0.3,0.1,0.3,0.2c0,0.1,0.1,0.4,0.1,0.5c0,0.1,0,0.4-0.1,0.5
	c-0.1,0.1-0.3,0.1-0.5,0c-0.2,0-0.3,0.1-0.4-0.1c-0.1-0.1-0.3-0.1-0.3-0.4c-0.1-0.2-0.1-0.2-0.1-0.4c0-0.2-0.1-0.3-0.2-0.4
	c-0.1-0.1-0.2,0-0.2,0s0,0.4-0.1,0.4c-0.1,0.1,0,0.4,0,0.6c0,0.2,0,0.4,0,0.6c0,0.2,0.2,0.6,0.3,0.7c0.1,0.1,0.5,0.8,0.4,1.1
	c-0.1,0.3-0.1,0.5-0.2,0.7c-0.1,0.2-0.6,0.3-0.6,0.3s-0.3-0.1-0.4-0.4c-0.1-0.3-0.3-0.6-0.4-0.8c0-0.2-0.1-0.6-0.1-0.8
	c0-0.2,0-0.6,0-0.8c0-0.2,0.1-0.5,0-0.6c0-0.1,0-0.4-0.2-0.4c0,0-0.1,0.1-0.2,0.4c0,0.3-0.1,0.5-0.1,0.7c0,0.1-0.2,0.4-0.4,0.4
	c0,0-0.2,0-0.3,0.1c-0.1,0.1-0.1,0.3,0,0.5c0,0.1,0.4,1.2,0.4,1.5c0,0.3-0.2,1.4-0.4,1.7c0,0-0.3,0.3-0.5,0.4c-0.2,0.1-0.4,0-0.4,0
	s-0.5-0.2-0.6-0.3c-0.1,0-0.1-0.2-0.3-0.4c-0.1-0.1-0.1-0.2,0-0.3c0.1-0.1,0.3-0.4,0.3-0.4s0.4-0.9,0.4-1.3c-0.1-0.5,0-1.1-0.2-1.4
	c-0.2-0.2-0.3-0.6-0.5-0.5c-0.2,0-0.3,0.1-0.3,0.1c0,0-0.1,0.1-0.1,0.1c0,0,0,0,0,0c0,0.1-0.1,0.2-0.1,0.2s0,0.2,0,0.3
	c0,0.1,0.1,0.4,0.2,0.6c0.1,0.1,0.2,0.3,0.2,0.4c0,0.1-0.1,0.1-0.1,0.1c-0.3,0.3-0.3,0.8-0.8,0.5c-0.2-0.1-0.4-0.2-0.4-0.2
	s-0.1,0-0.3-0.4c-0.4-0.6,0.1-0.4,0-0.7c0-0.1,0-0.3,0-0.4c0-0.1-0.1-0.1-0.1-0.1C40,14.9,39.9,14.9,39.8,14.8L39.8,14.8z"/>
<path class="st1" d="M96.3,32.5c0.2,0,0.6,0,0.8,0.1c0.3,0,0.6,0.1,0.9,0.4c0,0-0.2,0.4-0.2,0.5c0,0.2-0.1,0.4-0.5,0.7
	c-0.4,0.3-0.4,0.2-0.4,0.2s-0.2,0-0.7-0.3c-0.5-0.3-0.6-0.4-0.9-0.6c-0.2-0.2-0.4-0.5-0.4-0.5c-0.1,0.3,0,0.2,0.1,0.5
	c0,0.1,0.4,0.6,0.5,0.8c0.1,0.2,0.1,0.3,0.2,0.5c0,0.2,0,0.7,0.2,1c0,0,0.4,0.4,0.6,0.4c0.2,0,0.6,0,0.6,0s0.9,0,1.2-0.4
	c0.4-0.5,0.4-0.6,0.5-0.9c0.2-0.4,0.4-0.9,0.7-0.9c0,0,0.4,0.1,0.5,0.1c0.2,0,0.4,0,0.4-0.1c0,0,0.2-0.1,0.2-0.3
	c0-0.1,0-0.2-0.1-0.2c-0.1-0.2,0.1-0.2,0.2-0.5c0,0-0.1-0.3-0.2-0.4c-0.2-0.2-0.3-0.3-0.7-0.4c-0.4-0.1-0.8-0.3-1.4-0.6
	c-0.6-0.2-1.4-0.5-1.8-0.7c0,0-0.4-0.1-0.7-0.3c-0.3-0.2-0.4-0.7-0.8-0.5c-0.1,0-0.1,0.1-0.1,0.1s-0.1,0.5,0,0.7
	c0.1,0.5-0.1,1.1,0.5,1.4C95.8,32.3,96.1,32.5,96.3,32.5L96.3,32.5z M103,25.8c0,0-0.8,0.9-1,1.1c-0.2,0.2-1.1,1-1.2,1.2
	c-0.1,0.1-0.2,0.4-0.3,0.6c-0.1,0.2-0.2,0.3-0.2,0.4c0,0.1,0.2,0.1,0.4,0.1c0.1,0,0.3,0.1,0.3,0.1c0,0,0,0,0.1,0l0.3,0.1
	c0,0,0.2,0,0.4,0.1c0.1,0,0.3,0,0.4,0c0.1,0,0.1,0,0.2,0.1c0.2,0.2,0.3,0.6,0.3,0.6c0,0.1-0.1,0.1,0,0.2c0.1,0,0.2-0.1,0.3-0.1
	c0.1,0,0.2,0.1,0.3,0.2c0.2,0.2,0.2,0.3,0.2,0.5c0,0.1,0,0.2-0.1,0.3c-0.1,0.1-0.2,0.1-0.3,0.1c-0.1,0-0.3,0-0.3,0
	c-0.1,0-0.4-0.1-0.5-0.2c0,0-0.2-0.1-0.3-0.2c-0.2-0.1-0.4-0.3-0.7-0.4c-0.2-0.1-0.4-0.1-0.5-0.2c-0.5-0.2-1.5-0.9-1.7-1
	c-0.2-0.1-0.8-0.4-0.8-0.4c-0.2,0-0.4,0.4-0.4,0.6c0,0.1,0,0.3,0,0.4c0,0.1,0.1,0.3,0.1,0.3s0.8,0.5,0.9,0.6
	c0.2,0.1,1.1,0.4,1.1,0.4c0.3,0,0.5,0,0.7,0c0.4,0.1,0.6,0.3,0.8,0.3c0.2,0,0.8,0,0.8,0s0.3,0,0.3,0.1c0.1,0.1,0.1,0.2,0.1,0.3
	c0,0.1-0.2,0.3-0.4,0.2c-0.2,0-0.7-0.2-0.7-0.2s-0.3-0.1-0.3,0c0,0.1,0.6,0.8,0.7,0.9c0.2,0.2,0.2,0.2,0.6,0.3
	c0.4,0.1,0.4,0,0.5-0.2c0.1-0.1,0.3-0.9,0.3-1c0-0.3,0-0.4,0.1-0.5c0,0,0.3,0.2,0.3,0.3c0.2,0.2,0.4,0.1,0.5-0.1
	c0.2-0.4-0.1-0.6,0.3-0.6c0.1,0,0,0,0.1,0c0.1,0,0.2,0.1,0.4,0c0.3,0,1.5-0.2,1.6-0.2c0.1,0,0.5,0,0.5,0c0.1,0,0.2-0.3,0.2-0.5
	c0-0.4,0.2-0.3-0.1-0.6c-0.1-0.1-0.1-0.1-0.3-0.1c-0.1,0-0.2-0.1-0.3-0.1c-0.2-0.1-0.6-0.2-0.7-0.3c-0.6-0.2-0.4-0.4-0.1-0.7
	c0.2-0.2,0.3-0.2,0.1-0.5L106,28c0,0,0,0,0,0c0,0,0,0,0-0.1c0-0.1,0.1-0.1,0.2-0.2c0.1-0.1,0.3-0.2,0.4-0.3c0.1-0.1,0.2-0.2,0.2-0.2
	s0-0.2,0-0.3c-0.1-0.1-0.1-0.4-0.1-0.5c0-0.1,0-0.1,0-0.2c0,0,0-0.1,0-0.1c0-0.1-0.1-0.1-0.2-0.1c0,0,0,0.1-0.1,0.1
	c-0.1,0.1-0.3,0.3-0.4,0.3c-0.1,0-0.2,0.1-0.3,0.2c-0.2,0.1-0.3,0-0.4,0.1c-0.1,0-0.3,0-0.4,0c-0.1,0-0.2-0.2-0.4-0.3
	c0,0-0.1-0.1-0.1-0.1c0,0,0,0,0,0.1l0,0.2c0,0.1,0,0.2,0.1,0.3c0,0.1,0,0.1,0,0.2c0,0.1-0.4,0.2-0.6,0.3c-0.2,0.1-0.9,0.1-0.9,0.1
	c0.1,0.2,0.3,0.1,0.5,0.1c0.2,0,0.3,0,0.4,0.1c0.1,0.1,0.4,0.2,0.6,0.2c0.2,0,0.3,0.1,0.3,0.1c0.2,0.3-0.1,0.4-0.1,0.4
	s-0.2,0.1-0.5,0.2c-0.3,0.1-0.9,0.3-1,0.3c-0.1,0-0.3-0.5-0.3-0.5s-0.1-0.3-0.2-0.2c-0.2,0.2-0.1,0.1-0.1,0.3c0,0.1,0,0.5,0,0.5
	c-0.1,0.1-0.5,0.2-0.7,0.2c-0.1,0-0.4,0-0.6,0c0,0-0.1,0-0.1-0.1c0-0.1,0-0.2,0.1-0.2c0,0,0.1-0.1,0.2-0.2c0-0.1,0.1-0.2,0.1-0.2
	c0.1-0.2,0.7-1.1,0.9-1.3c0.1-0.1,0.4-0.4,0.5-0.6c0.1-0.1,0-0.2,0-0.2c0.1-0.1,0.1-0.3,0.1-0.3L103,25.8L103,25.8L103,25.8z
	 M105,29.1l0.7,0.7c0.1,0.1,0.1,0.2,0,0.3c-0.1,0.1-0.4,0.3-0.6,0.4c-0.1,0.1-0.3,0.2-0.4,0.1c-0.2,0-0.3-0.1-0.4-0.2
	c0,0-0.5,0-0.5-0.2c0-0.1,0-0.3,0-0.4c0-0.1-0.1-0.4-0.1-0.5c0,0-0.1-0.2,0-0.2c0,0,0.7-0.1,1.1-0.2C105,29,105,29.1,105,29.1
	L105,29.1z M100.9,25.9c0,0.2,0,0.7,0,0.8c0,0.1,0.2,0.2,0.1,0.3c0,0-0.1,0.1-0.2,0.2c-0.2,0.2-0.4,0.4-0.5,0.5
	c-0.1,0.1-0.2,0.2-0.3,0.3c-0.2,0.1-0.4,0.3-0.5,0.4c-0.1,0.1-0.2,0.1-0.1-0.1c0,0,0-0.1,0-0.1c0.1-0.1,0.1-0.2,0.2-0.4
	c0.1-0.1,0.2-0.3,0.3-0.5c0.1-0.2,0.3-0.4,0.4-0.5c0.1-0.1,0.1-0.2,0.2-0.4c0.1-0.1,0.2-0.3,0.3-0.5
	C100.8,25.9,100.8,25.8,100.9,25.9C100.9,25.8,100.9,25.8,100.9,25.9L100.9,25.9z"/>
<path class="st1" d="M18.8,33.9c0,0-0.1,0.3,0.1,0.8c0.1,0.1,0.3,0.3,0.4,0.5c0.1,0.2,0.1,0.5,0.3,0.8c0,0,0.1,0.1,0.2,0.2
	c0,0.1,0,0.2,0.1,0.2c0,0.1,0.1,0.1,0.2,0.1c0.1,0.1,0.1,0.2,0.1,0.2c0.1,0.1,0.3,0.2,0.4,0.1c0.1-0.1,0.3-0.2,0.6-0.2
	c0.1,0,0.5-0.3,0.4-0.4c-0.1-0.1-0.2-0.2-0.4-0.4C21,35.7,20.4,35.4,20,35c-0.4-0.4-0.7-0.7-0.8-0.8C19,34.1,18.8,33.9,18.8,33.9
	L18.8,33.9z M23.2,31c0-0.1,0.1,0,0.2,0c0.1,0,0.2-0.1,0.2-0.1c0.1,0,0.2,0.1,0.3,0.1c0.6,0,0.9,0,1.3,0.2c0,0,0.3,0.2,0.4,0.4
	c0.1,0.3,0,0.3,0,0.4c0,0.1-0.4,0.5-0.4,0.5s-0.3-0.1-0.4-0.2c-0.1-0.1-0.9-0.5-0.9-0.6c0,0-0.2,0-0.3-0.1c-0.2-0.1-0.4-0.3-0.4-0.3
	L23.2,31L23.2,31L23.2,31z M17.6,30.5c0-0.1,0-0.2,0-0.4c0-0.1,0-0.2,0-0.4c0-0.1-0.1-0.2-0.1-0.3c-0.1-0.4-0.1-1.1-0.3-1.8
	c0-0.1-0.1-0.2-0.1-0.3c0-0.1-0.1-0.2-0.1-0.3c-0.1-0.4-0.1-0.6-0.1-0.9c-0.1-0.4-0.2-0.8-0.2-0.9c0-0.2,0-0.4-0.1-0.5
	c0-0.1,0-0.3,0-0.3c0,0,0.2,0,0.2,0s0.4,0,0.5,0c0.1,0,0.2,0.2,0.3,0.2c0,0,0.2,0.1,0.4,0.1c0.1,0,0.3-0.1,0.4-0.2
	c0,0,0.2-0.2,0.2,0c0.1,0.2,0,0.2,0,0.3c0,0.1-0.1,0.2-0.1,0.2c0,0-0.1,0.1-0.1,0.2c-0.1,0.3-0.5,0.9-0.6,1.7c0,0.2,0,0.4,0,0.6
	c0,0.2,0,0.3,0,0.5c0,0.2,0,0.4,0,0.7c0,0.1,0.1,0.2,0.1,0.3c0,0.1,0,0.2,0,0.3c0,0.1,0,0.2,0,0.3c0,0.1,0,0.3,0,0.4
	c0,0.1,0,0.2-0.1,0.3c0,0.1,0,0.1,0,0.2c0,0.1,0,0.2,0.1,0.2c0.1,0,0.1,0,0.1,0c0.1-0.1,0.3-0.5,0.3-1c0.1-0.6,0.2-1,0.2-1
	s0-0.5,0-0.6c0-0.1,0.1-0.1,0.1-0.1s0.2,0,0.2,0c0,0.1,0.1,0.1,0.1,0.1s0.2,0,0.4,0c0.1,0,0.1-0.2,0.1-0.3c0-0.1,0-0.7,0-0.9
	c0-0.1,0.1-0.3,0.2-0.5c0.1-0.1,0.2-0.3,0.2-0.4c0.1-0.3,0.2-0.5,0.3-0.7c0.1-0.2,0.2-0.4,0.4-0.4c0,0,0.2,0.1,0.2,0.1
	c0,0.1,0.1,0.2,0.2,0.3c0.1,0.1,0.4,0.6,0.6,0.8c0.2,0.2,2,1.9,2.4,2.2c0.4,0.3,0.7,0.5,0.8,0.6c0.1,0.1,1.1,0.8,1.1,0.8
	c0,0,1.8,1.3,2,1.4c0.2,0.2,0.7,0.5,0.7,0.6c0,0,0.4,0.3,0.5,0.4c0.1,0.1,0.1,0.2,0,0.3c-0.1,0.2-0.2,0.4-0.2,0.5
	c0,0-0.1,0.3-0.2,0.4c0,0.1-0.1,0.1-0.2,0.1c-0.1,0-0.2,0-0.3-0.1c-0.1,0-0.2,0-0.3-0.1c-0.2,0-0.4-0.1-0.7-0.1
	c-0.6,0-0.9-0.1-1-0.1c0,0,0,0-0.1,0c-0.1-0.1-0.2-0.2-0.2-0.2c0,0,0.1-0.2,0.2-0.3c0.1-0.1,0.2-0.2,0.2-0.3c0,0,0.1,0,0.3-0.1
	c0.1,0,0.2-0.1,0.3-0.1c0-0.1,0.2-0.1,0.2-0.2c0-0.1-0.1-0.1-0.2-0.2c0,0-1.3-1.2-1.7-1.5c-0.2-0.2-1-0.7-1.5-1.1
	c-0.3-0.2-0.5-0.4-0.6-0.5c-0.3-0.3-1-0.9-1.1-1c-0.1-0.1-0.9-0.8-1.1-1.1c-0.2-0.2-0.3-0.3-0.3-0.4c-0.1-0.1-0.2-0.2-0.2-0.1
	c0,0.1-0.1,0.2-0.2,0.3c-0.1,0.1-0.3,0.1-0.4,0.2c-0.1,0.1-0.3,0.7-0.3,0.8c0,0.1,0.1,0.6,0.1,0.8c-0.1,0.1-0.1,0.4-0.3,0.5
	c0,0-0.1,0-0.2,0c-0.1,0-0.3,0-0.3,0.1c-0.1,0.1-0.1,0.5,0,0.7c0,0.1,0.1,0.2,0.1,0.2s0.2-0.2,0.3-0.3c0.4-0.5,0.3-0.4,0.9-0.2
	c0,0,0.2-0.3,0.3-0.4c0-0.1,0.2,0,0.2,0s0.1,0.1,0.1,0.2c0,0.1,0.2,0.6,0.2,0.8c0,0.2,0.1,0.3,0.2,0.4c0.1,0.1,0.2,0.1,0.3,0
	c0.1-0.1,0.1-0.3,0.5-0.1c0,0,0.2,0.1,0.2,0.1c0,0.1,0,0.3,0,0.4c0,0.1,0.2,0.9,0.5,1.4c0,0,0,0.2,0.7,0.5c0.6,0.3,0.8,0.4,0.9,0.5
	c0.1,0.1,0.5,0.3,0.5,1.1c0,0,0,0.4-0.5,0.3c0,0-0.3,0-0.6-0.2c-0.2-0.1-0.3-0.2-0.3-0.3c-0.1,0,0,0-0.1,0c0,0.1-0.1,0.2-0.1,0.2
	c0,0.1,0.2,0.3,0.2,0.4c0.1,0.1,0.2,0.5,0.1,0.6c0,0.1-0.1,0.1-0.1,0.2c0,0-0.1,0-0.2,0c-0.1,0-0.2,0-0.2,0c-0.1,0-0.2-0.1-0.2-0.3
	c0,0-0.1-0.2-0.1-0.5c0-0.3,0-0.5-0.1-0.5c0-0.1,0-0.2-0.1-0.3c-0.1-0.1-0.5-0.4-0.6-0.4c0,0-0.1,0-0.2,0.1c0,0.1-0.1,0.2,0,0.3
	c0.1,0.1,0.2,0.2,0.1,0.2c0,0.1-0.3,0.3-0.5,0.2c-0.2-0.1-0.3-0.3-0.4-0.5c0,0,0.1-0.3,0.1-0.7c0-0.3-0.1-0.5-0.2-0.6
	c-0.1-0.1-0.1-0.1-0.1-0.1s-0.1,0.3-0.1,0.5c0,0.2,0,0.5,0,0.6c0,0.1,0,0.2-0.1,0.3c-0.1,0-0.1,0.1-0.5,0.1c-0.3,0-0.5,0.2-0.7,0.1
	C19,33.1,19,33,19,32.9c0-0.1,0.2-0.5,0.3-0.7c0-0.2,0.2-0.6,0.2-0.9c0-0.3,0.1-0.8,0.1-0.9c0-0.1,0-0.2,0-0.2l-0.4-0.3
	c0,0-0.1,0-0.3,0.2c-0.1,0.2-0.2,0.1-0.5,0.8c0,0-0.1,0.3-0.2,0.5c-0.1,0.2-0.2,0.1-0.2,0.2c-0.1,0.1-0.2,0.2-0.3,0.3
	C17.6,31.9,17,32,17,32c0,0,0.2-0.3,0.3-0.5c0.1-0.2,0.2-0.4,0.2-0.5c0,0,0-0.1,0-0.1c0-0.1,0-0.1,0-0.2c0,0,0-0.1,0-0.1
	C17.6,30.6,17.6,30.6,17.6,30.5L17.6,30.5z M15,31.4c0.1-0.2,0.2-0.2,0.2-0.5c0-0.2,0.1-0.3,0.1-0.4c0-0.2,0.1-0.4,0.1-0.5
	c0,0,0-0.1,0-0.2c0-0.1,0.1-0.2,0-0.3c0-0.1-0.1-0.1-0.3-0.2c0,0,0,0,0,0c0,0-0.1,0-0.1,0c-0.1-0.1-0.4-0.2-0.5-0.3
	c-0.1-0.1,0-0.2,0-0.3c0-0.1,0-0.1,0.2-0.1c0.1,0,0.4,0,0.5,0c0.1,0,0.3-0.1,0.3-0.1c0.1,0,0.4-0.1,0.5,0c0,0,0.2,0.1,0.2,0.1
	c0.1,0,0.1,0,0.1,0c0.1,0,0.2,0,0.3,0c0.1,0,0.2,0,0.3,0.2c0,0.1-0.1,0.2-0.1,0.3c0,0,0.1,0.1,0.1,0.2c0.1,0.1,0.2,0.4,0.1,0.5
	c0,0.1-0.2,0.2-0.3,0.3c-0.1,0.1-0.1,0.4-0.1,0.6c0,0.2-0.1,0.7,0,0.8c0,0.1,0,0.2,0,0.3c0,0.1-0.1,0.2-0.3,0.2c-0.1,0-0.3,0-0.4,0
	c-0.1,0-0.1,0-0.2,0c-0.2,0.1-0.4,0-0.4,0c-0.1,0-0.2,0.1-0.3,0C15,31.7,15,31.5,15,31.4L15,31.4z"/>
<path class="st1" d="M80.8,17c0,0,0.3,0.1,0.3,0.2c0,0.1,0.3,0.7,0.3,0.8c0,0.1,0.3,0.2,0.4,0.4c0.1,0.2,0.1,0.4,0.1,0.6
	c0,0.2,0.1,0.3,0.2,0.4c0.1,0.3,0.2,1.1,0,1.2c-0.1,0-0.3-0.1-0.4,0c-0.2,0-0.5,0.1-0.6,0.1c-0.2,0-0.4,0.2-0.6,0.1
	c-0.2,0-0.3-0.1-0.2-0.3c0-0.2,0.4-1.1,0.4-1.5C80.7,18.1,80.8,17.4,80.8,17L80.8,17z M74.4,13.2c0.1,0.1,0.3,0.2,0.5,0.3
	c0.2,0,1.7,0.3,2.4,0.3c0.7,0,0.9,0,1.1,0c0.2,0,0.5,0,0.8-0.3s0.7-1.1,0.9-1.4c0.2-0.3,0.3-0.8,0.4-1c0.1-0.2,0.1-0.6,0-0.9
	c0,0,0-0.3,0.1-0.4c0.1-0.1,0.4-0.1,0.5-0.2c0,0,0.1-0.1,0.1-0.1c0,0,0.1,0,0.1,0c0,0,0,0.1,0.1,0.1c0,0.1,0.2,0.4,0.3,0.6
	c0.1,0.2,0.5,0.9,0.6,1c0,0.1,0.1,0.4-0.1,0.6c0,0-0.2,0.2-0.2,0.3c-0.1,0.1,0,0.4-0.2,0.4c-0.2,0-0.5,0.3-0.6,0.4
	c-0.1,0.2-0.2,0.3-0.2,0.4c0,0.1-0.1,0.2-0.1,0.2s0.1,0,0.2,0c0.1,0,0.4,0,0.6,0c0.1,0,0.3,0,0.5-0.1c0.1,0,0.2-0.1,0.3-0.2
	c0.1,0,0.2,0,0.2,0c0.1,0,0.2,0,0.2,0c0.1,0,0.1-0.1,0.1-0.1c0.1-0.1,0.1-0.1,0.1-0.2c0,0,0-0.1,0-0.1c0,0,0-0.1-0.1-0.2
	c0,0,0,0,0,0l0,0c0,0,0,0,0.1,0c0.1,0,0.2,0.2,0.3,0.3c0.1,0.1,0.3,0.4,0.3,0.5c0,0.1,0,0.2-0.1,0.2c-0.1,0-0.3,0-0.6,0.1
	c-0.1,0-0.2,0-0.3,0.1c-0.1,0-0.3,0.1-0.4,0.2c-0.1,0.1-0.2,0.3-0.4,0.3c-0.3,0.1-0.8,0.1-1,0.1c-0.2,0.1-0.5,0.2-0.6,0.3
	c-0.2,0.1-0.3,0.3-0.4,0.3c-0.1,0-0.4,0.2-0.5,0.3c-0.1,0.1-0.3,0.4-0.5,0.6c-0.2,0.2-0.5,0.6-0.5,0.7c0,0.1-0.2,0.3-0.3,0.5
	c-0.1,0.2-0.4,0.4-0.9,0.4c0,0-0.4,0-0.6,0.1c-0.2,0.1-0.4,0.1-0.6,0.1c-0.2,0-0.5,0.1-1.2-0.1c-0.7-0.2-0.9-0.3-1.3-0.4
	c-0.4-0.1-1-0.2-1.1-0.3c-0.1,0,0-0.2,0.1-0.1c0.1,0,0.2,0,0.4,0c0.2,0,0.9-0.1,1.4-0.2c0.5-0.1,1.1-0.1,1.4-0.3
	c0.3-0.1,1.2-0.3,1.5-0.5c0.3-0.2,0.8-0.7,0.8-0.9c0,0,0-0.2-0.2-0.2c-0.2,0-1,0.1-1.2,0.2c-0.3,0-0.4,0-0.9,0.1
	c-0.5,0.1-0.8,0.2-1,0c-0.2-0.2-0.3-0.4-0.5-0.8c-0.1-0.2-0.2-0.5-0.3-0.8c0-0.1,0-0.1,0.1-0.2C74.1,13.4,74.3,13.2,74.4,13.2
	L74.4,13.2z"/>
<path class="st0" d="M156.6,113.9h-11.6v-0.8c1.4,0.1,2.1-0.4,2-1.3v-9.6c0.1-0.9-0.6-1.4-2-1.3v-0.8h7.3v0.8
	c-1.4-0.1-2.1,0.4-2,1.3v9.5c-0.1,0.9,0.4,1.4,1.3,1.3c2-0.2,3.4-1.6,4.2-4.4h0.9L156.6,113.9L156.6,113.9z M163.7,113.9h-5.5v-0.8
	c1.1-0.2,1.9-1,2.5-2.6l4.5-10.7h1l5.2,12c0.3,0.9,0.9,1.3,1.9,1.3v0.8h-7.2v-0.8h0.8c0.8,0.1,1.2-0.2,1.2-0.7c0-0.1,0-0.3-0.1-0.6
	c0.1,0.2,0,0.2-0.1-0.2l-1-2.3h-4.4l-0.6,1.6c-0.2,0.3-0.3,0.7-0.3,1.3c0.1,0.6,0.4,0.9,1.2,0.9h1V113.9L163.7,113.9z M166.4,108.3
	l-1.8-4.2l-1.7,4.2H166.4L166.4,108.3z M174.3,100.8v-0.8h4.9l6.8,9.4h0.1v-7.1c0.1-0.9-0.6-1.4-2.1-1.6v-0.8h5v0.8
	c-1.3,0.2-1.9,0.7-1.8,1.6v11.5h-1.9l-7.7-10.7h-0.1v8.6c-0.2,0.9,0.6,1.4,2.4,1.3v0.8h-5.4v-0.8c1.4,0.1,2.1-0.4,2-1.3v-9.6
	C176.4,101.2,175.7,100.8,174.3,100.8L174.3,100.8z M201.4,108.6l-0.1,5.4h-10.8v-1l7.2-11.9h-1.3c-2.9,0.1-4.4,1.3-4.6,3.9H191
	l0.2-4.8h10.2v1.4l-7,11.5c3.8,0.2,5.9-1.3,6.2-4.4H201.4L201.4,108.6z M208.8,106.2h4.5v-4c0.1-0.9-0.5-1.4-1.7-1.3v-0.8h7.1v0.8
	c-1.4-0.1-2.1,0.4-2,1.3v9.6c-0.1,0.9,0.6,1.4,2,1.3v0.8h-7.1v-0.8c1.2,0.1,1.8-0.4,1.7-1.3v-4.7h-4.5v4.7c-0.1,0.9,0.5,1.4,1.7,1.3
	v0.8h-7v-0.8c1.4,0.1,2-0.4,1.9-1.3v-9.6c0.1-0.9-0.5-1.4-1.9-1.3v-0.8h7v0.8c-1.2-0.1-1.8,0.4-1.7,1.3V106.2L208.8,106.2z
	 M220.5,107c0.5-4.4,2.8-6.7,7.1-7.2c4.2,0.5,6.5,2.9,7,7.2c-0.4,4.3-2.8,6.6-7,7C223.3,113.6,221,111.3,220.5,107L220.5,107z
	 M224.3,107c0,4.1,1.1,6.2,3.3,6.2c2.1,0.1,3.2-2,3.2-6.2c0-4.2-1.1-6.3-3.2-6.2C225.4,100.8,224.3,102.8,224.3,107L224.3,107z
	 M236.4,100.1h7.1v0.8c-1.5-0.1-2.2,0.4-2,1.3v8.3c0.1,1.7,1,2.6,2.8,2.8c2.3,0,3.5-1.2,3.5-3.5v-7.3c0.2-0.9-0.6-1.4-2.2-1.6v-0.8
	h5.1v0.8c-1.4,0.2-2,0.7-1.9,1.6v7.2c0,2.9-1.8,4.4-5.3,4.4c-3.4-0.1-5.1-1.3-5.2-3.9v-8c0.1-0.9-0.5-1.4-1.9-1.3V100.1L236.4,100.1
	z M262.1,100.1h7.1v0.8c-1.5-0.1-2.1,0.4-2,1.3v8.3c0.1,1.7,1,2.6,2.8,2.8c2.3,0,3.5-1.2,3.5-3.5v-7.3c0.2-0.9-0.6-1.4-2.2-1.6v-0.8
	h5.1v0.8c-1.4,0.2-2,0.7-1.9,1.6v7.2c0,2.9-1.8,4.4-5.3,4.4c-3.4-0.1-5.1-1.3-5.2-3.9v-8c0.1-0.9-0.5-1.4-1.9-1.3V100.1L262.1,100.1
	z M277.6,100.8v-0.8h4.9l6.8,9.4h0.1v-7.1c0.1-0.9-0.6-1.4-2.1-1.6v-0.8h5v0.8c-1.3,0.2-1.9,0.7-1.8,1.6v11.5h-1.9l-7.7-10.7h-0.1
	v8.6c-0.2,0.9,0.6,1.4,2.4,1.3v0.8h-5.4v-0.8c1.4,0.1,2.1-0.4,2-1.3v-9.6C279.8,101.2,279.1,100.8,277.6,100.8L277.6,100.8z
	 M301.4,113.9h-7.3v-0.8c1.4,0.1,2.1-0.4,2-1.3v-9.6c0.1-0.9-0.6-1.4-2-1.3v-0.8h7.3v0.8c-1.4-0.1-2.1,0.4-2,1.3v9.6
	c-0.1,0.9,0.6,1.4,2,1.3V113.9L301.4,113.9z M302.8,100.8v-0.8h6.7v0.8c-1.3-0.1-1.9,0.2-1.8,0.8c-0.2-0.2,0.7,2.6,2.6,8.4h0.1
	c0.1-0.3,0.3-0.8,0.5-1.3c1.9-5.1,2.7-7.3,2.4-6.8c0-0.7-0.6-1.1-1.7-1.1v-0.8h4.6v0.8c-1,0.1-1.6,0.6-1.8,1.3l-4.3,11.7h-1.7
	l-3.8-11.7C304.3,101.2,303.7,100.7,302.8,100.8L302.8,100.8z M329.3,100.1l0.2,5h-0.9c-0.7-2.7-2.3-4-4.7-4
	c-1.2-0.1-1.8,0.3-1.7,1.3v3.9c1.7,0.2,2.8-0.6,3.1-2.4h0.8v5.6h-0.8c-0.4-1.7-1.4-2.5-3.1-2.4v4.6c-0.1,0.9,0.5,1.3,1.7,1.3
	c2.6-0.1,4.3-1.5,5-4.3h0.9l-0.2,5.3h-12.8v-0.8c1.4,0.1,2.1-0.4,2-1.3v-9.6c0.1-0.9-0.6-1.4-2-1.3v-0.8H329.3L329.3,100.1z
	 M344.9,110.9h0.8c0,2.1-1,3.1-2.9,3.1c-2,0.1-3-1-3-3.3c0.2-2.4-0.7-3.5-2.4-3.4v4.2c-0.2,1.2,0.5,1.8,2,1.7v0.8h-7.2v-0.8
	c1.4,0.1,2.1-0.4,2-1.3v-9.6c0.1-0.9-0.6-1.4-2-1.3v-0.8h7.1c3.4,0.1,5.1,1.3,5.1,3.7c-0.1,2.2-1.7,3.3-4.9,3.3v0.1
	c1.9,0.2,3.1,1.2,3.5,3c0.5,1.7,0.9,2.5,1.2,2.2C344.6,112.4,344.8,111.9,344.9,110.9L344.9,110.9z M337.3,102.2v4.3
	c2.5,0.1,3.6-0.9,3.5-2.8c-0.1-1.7-0.8-2.7-2.2-2.8C337.7,101,337.3,101.4,337.3,102.2L337.3,102.2z M347.8,113.9v-5.4h0.9
	c0.8,3,2.3,4.6,4.4,4.6c1.7-0.1,2.5-0.8,2.6-2.3c0-0.9-1.1-1.7-3.3-2.4c-3-1.1-4.5-2.4-4.5-4.1c0.2-2.9,1.7-4.4,4.7-4.6
	c1,0,1.9,0.3,2.8,0.8c0.3,0.2,0.5,0.2,0.6,0.2c0.2,0,0.4-0.2,0.6-0.6c0.1-0.1,0.1-0.2,0.2-0.2h0.8v4.8h-0.8c-0.7-2.7-2-4-3.9-4.1
	c-1.5,0.1-2.3,0.7-2.4,2c0,0.9,1.1,1.8,3.2,2.4c3.1,1,4.6,2.5,4.6,4.4c-0.2,2.7-1.8,4.1-4.9,4.4c-1.1,0-2.2-0.2-3.3-0.6
	c-0.4-0.2-0.6-0.2-0.8-0.2c-0.3,0-0.5,0.2-0.8,0.7c-0.1,0.1-0.1,0.1-0.1,0.1H347.8L347.8,113.9z M368.3,113.9H361v-0.8
	c1.4,0.1,2.1-0.4,2-1.3v-9.6c0.1-0.9-0.6-1.4-2-1.3v-0.8h7.3v0.8c-1.4-0.1-2.1,0.4-2,1.3v9.6c-0.1,0.9,0.6,1.4,2,1.3V113.9
	L368.3,113.9z M370.2,100.1h13l0.1,4.9h-0.9c-0.6-2.6-1.9-3.9-3.9-3.9v10.8c-0.1,0.9,0.6,1.4,2.2,1.3v0.8h-7.9v-0.8
	c1.7,0.1,2.4-0.4,2.3-1.3V101c-2,0-3.3,1.3-3.9,3.9h-0.9L370.2,100.1L370.2,100.1z M384.4,100.8v-0.8h6.7v0.8c-1,0-1.6,0.2-1.6,0.6
	c0,0.2,0.1,0.4,0.3,0.9c0.1,0.1,0.1,0.2,0.1,0.2l2.1,4l1.9-3.8c0.2-0.5,0.3-0.8,0.3-1.1c0-0.6-0.6-0.9-1.7-0.9v-0.8h5.1v0.8
	c-1.2,0.1-1.9,0.6-2.2,1.4l-2.9,5.9v3.6c-0.1,0.9,0.6,1.4,2.2,1.3v0.8H387v-0.8c1.7,0.1,2.4-0.4,2.3-1.3v-3.7l-2.6-5
	C386,101.5,385.3,100.7,384.4,100.8L384.4,100.8z"/>
<path class="st1" d="M211.9,39.9c0-0.4,1.1-0.1,1.9-0.1c0.3,0,1,0,1.1,0.1c0.5,0.2,0.7,0.3,1.7,1.2c1,0.9,1.6,1.6,2.3,1.5
	c0.7,0,1.4-0.1,1.6-0.2c0.2-0.2,0.5-0.7,0.9-1.2c0.4-0.5,0.9-0.9,1.2-1.6c0.3-0.7,0.5-1.3,0.7-1.6c0.2-0.3,1.7-1.7,2.2-1.8
	c0.5-0.1,3.2-0.3,6,0.6c0,0,0.8,0.6,0.8,1.3c-0.1,0.8-0.2,3-0.2,3.3c0,0.3,0.1,0.6,0.7,1c0.6,0.4,1.3,0.7,2.3-0.2c1-0.8,2.4-2,3-2.6
	c0.7-0.7,1.3-1.5,1.7-2.2c0.4-0.6,0.9-1.8,1.5-2.2c0.6-0.4,1.3-0.8,2.7-0.5c1.3,0.3,2.2,0.5,2.7,0.7c0.6,0.2,1.2,0.6,1.2,0.6
	s0.4,0.5,0.3,1.3c-0.1,0.7-0.3,1.5-0.2,1.8c0.1,0.3,1,2.2,2.8,2c0,0,0.8,0,1-0.1c0.2-0.1,0.9-0.6,1.7-1.7c0.8-1.1,1.2-1.9,1.8-2.7
	c0.6-0.8,1.7-2.6,2.8-3.5c1.1-0.9,1.7-1.1,2.2-1.5c0.6-0.4,2.2-1.2,3.2-1.1c2.3,0.1,3.2,1.4,5,2.7c0.8,0.6,1.4,1.2,1.5,1.6
	c0.1,0.4,0.2,0.7,0,0.8c-0.2,0.2-1.5,2.7-3,4c0,0-0.5,0.8-0.6,1.2c-0.1,0.4,0,1.2-0.3,1.8c-0.2,0.5-0.4,1.6-0.3,2.5
	c0,0.2-0.2,0.4-0.4,0.8c-0.2,0.6-0.2,1.4-0.1,2.2c0.1,0.8,0,1.8,0.1,2.6c0,0.4,0.3,0.7,0.4,1.1c0.1,0.5-0.1,1.1-0.2,1.6
	c0,0-0.1,0.4-0.3,0.8c-0.2,0.4-0.6,0.8-0.8,1.3c-0.2,0.6-0.5,0.9-0.3,1.5c0.1,0.3,0.6,0.7,0.8,1.1c0.6,1.4,1.1,5.1,0.5,6.4
	c-0.4,0.9-2.4,1.6-3,2.2c-0.6,0.6-2.6,2.8-3.5,3c-0.9,0.2-2.5-0.2-2.9-0.7c-0.4-0.5-0.8-1.6-0.8-1.6l-1.3-1.1l-1.5-0.2
	c0,0,0.1-0.7,0.5-1.1c0.4-0.4,0.8-1.1,1.3-2.3c0.5-1.1,1-4.7,1-6.5c0,0,0.7-2.1,1-3.8c0.2-1.6,0-4.2,0.4-5.5
	c0.4-1.2,1.1-2.5,1.3-2.9c0.2-0.4,1.1-2.7,1.1-4c-0.1-1.3-0.6-1.7-1.1-1.8c-0.5-0.1-1.1,0.7-1.6,1.2c-0.5,0.6-2.2,1.9-2.8,4.7
	c0,0-0.3,1.3,0.2,1.6c0.5,0.3,1.1,1.1,1.1,1.6c0,0.5-0.2,2.3-0.4,2.7c-0.2,0.4-0.9,1.9-1.6,2c-0.7,0.2-1.5-0.2-2.3-0.9
	c-0.8-0.7-1.8-0.5-2-1.3c-0.2-0.8-1.1-1.3-0.8-2.6c0.2-1.3,0.2-1.3,0.6-2.1c0.3-0.8,0.2-2,0-2.5c-0.2-0.5-0.7-0.5-0.7-0.5
	s-0.8,1.7-1.3,2c-0.5,0.3-0.9,2-1.2,3.2c-0.3,1.2-0.7,2-1.1,3c-0.4,1-0.3,3.5-0.2,4.2c0.1,0.7,0.4,5-0.6,6.2c-1,1.2-1.6,2.5-2.5,3.2
	c-0.8,0.7-3.8,0.2-3.8,0.2s-1.3-1.1-1.2-3.1c0.1-2-0.2-3.8,0.1-4.8s1-3.1,1.3-4.1c0.3-1,1.2-2.9,1.7-3.8c0.5-0.9,1.4-2.1,1.6-2.9
	c0.2-0.7,0.7-2.2,0-2.3c0,0-0.9,0.1-1.8,1.5c-0.9,1.4-1.6,2.4-1.9,3.1c-0.2,0.7-1.9,1.8-2.9,1.3c0,0-1.1-0.5-1.8-0.4
	c-0.7,0.1-1.1,1.6-1.2,2.2c-0.2,0.7-0.8,6.6-1.5,8.3c-0.7,1.6-4.4,6.4-5.9,7.1c0,0-2.3,0.7-3.4,0.9c-1.1,0.2-1.8-0.7-1.8-0.7
	s-2-2.1-2.4-2.6c-0.4-0.5-0.2-1.5-0.5-2.5c-0.3-1,0.1-1.3,0.7-1.6c0.6-0.3,2.5-1,2.5-1s4.1-3.4,4.8-5.7c0.7-2.4,2.5-5.6,2.2-7.2
	c-0.2-1.6-0.3-3.4-1.2-3.8c-0.8-0.3-1.4-0.3-2-0.1c-0.3,0.1-0.6,0.2-0.9,0.5c-0.1,0-0.1,0.1-0.1,0.2c-0.3,0.6-1,1-1,1
	s-0.3,1.1-0.6,1.7c-0.3,0.6-0.5,2.1-0.4,3.2c0.1,0.8,0.2,1.9-0.2,2.6c-0.2,0.2-0.6,0.3-0.8,0.4c-2.3,1-3.2,3.5-5.1,0.6
	c-0.7-1-1.6-1.7-1.6-1.7s-0.4-0.5-0.7-2.6c-0.4-3.9,1.1-1.6,1.6-3.4c0.1-0.5,0.7-1.3,0.7-2.1c0-0.3-0.2-0.9-0.3-1
	C212.5,40.8,211.9,40.5,211.9,39.9L211.9,39.9z"/>
<path class="st1" d="M363.1,69.6c0.7-0.6,2.2-2,3.3-3c1.2-1,2.7-2.1,5-2.1c0,0,0.8,2.2,1.2,2.9c0.5,0.8,1.2,1.7,0.7,4.5
	c-0.5,2.8-0.6,2.5-0.6,2.5s-0.6,0.8-3.5,1.5c-2.9,0.7-4,0.8-5.6,1c-1.6,0.2-3.4-0.1-3.4-0.1c1,1.4,1,0.8,2.5,1.5
	c0.7,0.3,3.9,0.8,4.9,1c1,0.2,1.8,0.7,2.5,1.3c0.8,0.6,2.7,2.5,4.5,2.8c0,0,2.9-0.1,3.6-0.7c0.7-0.6,2-2.3,2-2.3s3.2-3.2,2.8-6.3
	c-0.5-3.1-0.9-3.5-1.6-5.5c-0.7-2.1-1.8-4.7-0.9-6c0,0,1.6-1.1,2.2-1.8c0.5-0.6,1.3-1.5,1.4-2c0-0.3,0.1-1.2-0.2-1.7
	c-0.3-0.6-0.8-0.5-1.1-0.7c-0.8-0.3-0.6-1.3-1.1-2.6c0,0-1.5-0.7-2.6-0.7c-1.2,0-2.1-0.1-4,1.2c-1.9,1.2-4.3,1.8-7.5,3.4
	c-3.2,1.5-7.2,3.7-9.4,4.3c0,0-2,1.4-3.8,1.7c-1.8,0.3-3.9-1-4.8,1c-0.2,0.5,0.2,0.8,0.2,0.8s1.6,2,2.9,2.7c2.4,1.3,3.8,4.3,6.9,3.2
	C360.8,70.5,362.4,70.2,363.1,69.6L363.1,69.6z M361.8,19.3c0,0,0.5,6.3,0.5,7.9c0,1.6,0.2,7.9,0.3,8.7c0.1,0.8,0.8,2.3,1,3.4
	c0.3,1.2,0.4,1.7,0.8,2c0.3,0.3,0.9-0.2,2-1.3c0.5-0.5,1.2-0.7,1.5-1c0.1-0.1,0.1-0.2,0.3-0.3l1.6-0.9c0,0,0.7-0.5,1.6-1.2
	c0.6-0.4,1.3-1,1.6-1.3c0.3-0.3,0.5-0.4,1-0.4c1.7-0.1,3.4,1.3,3.4,1.3c0.2,0.2,0.2,0.8,0.8,0.7c0.4-0.1,0.3-0.9,0.8-1.3
	c0.3-0.3,1.1-0.2,1.8-0.2c1.5-0.1,1.8,0.4,2.5,1.1c0.4,0.4,0.7,0.9,0.8,1.4c0.1,0.7-0.4,1.2-0.8,1.7c-0.4,0.6-0.7,1.2-1,1.4
	c-0.6,0.4-1.7,1.1-2.4,1.3c-0.2,0.1-1,0.1-2,0.4c-1.2,0.3-2.6,0.7-4.1,1.2c-0.9,0.3-1.9,0.9-2.6,1.2c-2.8,1.1-8.9,2.6-10,3
	c-1.1,0.4-4.5,1.3-4.5,1.3c-1,0.9,0.3,3.1,0.7,3.7c0.4,0.6,1.1,1.2,1.4,1.6c0.3,0.4,1.5,0.6,1.5,0.6s4.8-1.1,5.8-1.5
	c1-0.3,5.5-3,5.5-3c0.9-1.1,1.7-2,2.7-2.6c1.8-1.1,3.6-1.3,4.1-1.6c0.7-0.6,3-2.8,3-2.8s1.1-0.9,1.5-0.9c0.4,0,1.1,0.4,1.5,0.7
	c0.4,0.3,0.1,1.9-0.5,2.4c-0.6,0.6-3.1,2-3.1,2s-1.5,0.8-1.1,0.9c0.4,0.1,5.5,0.6,6,0.6c1.5,0,1.7,0.1,3.5-1.1
	c1.6-1.1,1.3-1.6,1.1-2.6c-0.2-1-2.1-4.5-2.8-5c-1.1-1-1.7-1.3-1.4-2.2c0,0,1.9-0.2,2.4-0.2c1.5,0,1.9-1.4,1.5-2.6
	c-0.7-2.1-2.7-1.7-1.4-3.5c0.2-0.2,0.2-0.2,0.4-0.3c0.4-0.1,1-0.5,1.6-1.3c0.9-1.3,4.9-6.5,5.3-6.8c0.4-0.3,1.8-1.8,1.9-2.2
	c0.1-0.4-0.4-1.9-1.2-2.7c-1.7-1.6-0.6-2-2.5-1.7c-0.6,0.1-0.8,0.2-1.4,0.6c-0.4,0.3-1,0.6-1.7,1c-1.2,0.6-3,1.2-3.5,1.5
	c-2.6,1.6-3.1-0.1-3.1-2.1c0-1.5,0.4-1.7-1.2-2.2l-1.5-0.2c-0.1,0-0.2,0-0.2-0.1c0-0.1-0.1-0.2-0.1-0.3c-0.1-0.3-0.1-1,0-1.7
	c0.1-0.6,0.2-1.7,0.2-2.6c-0.1-0.8-0.3-1.4-0.3-1.4s-0.6-0.7-1.4-1.1c-0.7-0.3-1.6-1.1-2.3-1.5c-0.3-0.2-0.5-0.4-0.7-0.5
	c-0.1-0.1-0.4-0.2-0.5-0.2c-0.7-0.4-0.8-0.2-0.8,0.5c0,0.2,0.1,0.4,0.1,0.6c0,0.7,0.2,2.1-0.2,2.8c-0.2,0.3-0.3,1.2-0.6,1.9
	c-0.3,0.8-1,1.3-1.1,1.7c-0.2,0.4-0.9,1.1-1.5,1.3c-0.4,0.2-1.7,0.1-2.5,0.2c-0.3,0-0.7,0.1-0.8,0.2c0,0.1,0.1,0.2,0.2,0.4l0.7,0.5
	c0.6,0.4,1,0.6,1.4,0.9c0.3,0.2,0.6,0.3,0.8,0.8c0.2,0.6-0.6,2.1-1.1,3.4c-0.4,1.3-2.7,4-2.7,4c0.9,0.2,1.6-1.1,2.1-1.7
	c0.9-1,1.3-1,1.9-1.2c0.6-0.2,2.3-1.1,2.9-1.7c0.6-0.6,1.4-0.6,1.4-0.6c1.6,0.4,1.1,2,1.1,2s-0.3,1.2-1.3,2.7
	c-0.9,1.5-2,4.5-2.7,4.9c-0.6,0.3-2.7-0.7-2.7-0.7s-1.5-0.5-1.5-0.3c-0.3,1.5,0,0.8,0.6,1.5c0.3,0.4,1.9,1.8,1.9,1.8
	c0.1,0.6-1.2,2.8-1.6,3.4c-0.3,0.4-1.4,1.7-2.3,2.4c-0.2,0.2-0.5,0.3-0.7,0c-0.3-0.4-0.6-0.8-0.6-1.1c0-0.3-0.1-0.8-0.2-1.5
	c-0.1-0.4-0.2-1.1-0.4-1.5c-0.5-1.1-1.6-6.9-1.7-8c-0.1-0.8-0.1-2.8-0.3-4c-0.1-0.5-0.5-0.7-0.5-0.9c0-0.4-0.7-1.3-0.7-1.3l-0.4-0.5
	H361.8L361.8,19.3z M382,23.7l5.3,0.1c0.8,0.1,1.1,0.6,1.2,1.4c0.1,0.9-0.2,2.4-0.7,3.7c-0.3,0.7-0.4,1.6-0.9,2.1
	c-0.6,0.6-1.7,0.8-2.1,0.9c-0.2,0-1.9,1.7-2.4,1.3c-0.3-0.2-1.2-1.4-1.5-1.8c-0.4-0.3-1.7-1.1-2.2-1.6c-0.1-0.1-0.8-0.4-0.8-0.7
	c0-0.3,2.3-3.3,3.4-4.9C381.6,23.6,381.7,23.8,382,23.7L382,23.7z M354.6,27.8c0.7,0.6,2.7,2.7,3.1,3c0.4,0.3,1.4,0.1,1.4,0.9
	c0,0.3,0,0.9,0.1,1.7c0.1,1.3,0.1,2.9,0.1,3.6c0,0.4,0.1,1.4,0.1,2.5c-0.1,1.1-0.3,2.4-0.6,3.4c-0.1,0.6-0.1,1-0.7,0.3
	c-0.1-0.1-0.2-0.2-0.3-0.4c-0.3-0.7-0.6-1.2-0.7-2.1c-0.1-0.9-0.6-1.9-0.9-2.8c-0.3-0.9-0.2-2.6-0.4-3.4c-0.2-0.8-0.5-1.3-0.8-2.2
	c-0.2-0.6-0.5-2-0.6-3.1c-0.1-0.6-0.1-1.1-0.1-1.3C354.4,27.5,354.5,27.7,354.6,27.8L354.6,27.8z"/>
<path class="st1" d="M153.2,49.3c0,0-2,0.8-3.1,3.1c-0.4,0.8-0.3,2.4-0.8,3.6c-0.6,1.4-1.6,2.3-2.4,4.3c0,0.1-0.1,0.7-0.4,1.5
	c-0.2,0.4-0.6,0.7-0.8,1.2c-0.1,0.4,0.1,1,0,1.3c-0.2,0.5-0.6,0.8-0.6,1.3c-0.1,0.9,0.2,1.8,0.8,2c0.7,0.3,1.9,1,3.1,2.3
	c0.5,0.6,3.3,1.3,3.5,0.3c0.2-0.7,0.4-1.6,0.3-3.1c-0.1-1.6-1.1-5.6-0.9-8.6c0.3-3,0.7-5.4,0.7-6.7
	C152.7,50.7,153.2,49.3,153.2,49.3L153.2,49.3z M181.9,59.3c0.3-0.1,0.5,0.4,1.1,0.9c0.4,0.3,0.9,0.6,1.2,0.9c0.3,0.3,0.3,1,0.9,1.7
	c2,2.7,3.2,4.1,3.8,6.7c0,0,0.3,2-0.6,3.2c-0.9,1.2-1.4,1.2-1.7,1.4c-0.4,0.2-3.9-0.1-3.9-0.1s-0.4-1.7-0.4-2.6
	c0-0.9-0.6-5.9-0.6-6.4c0-0.2-0.6-1.1-0.6-2.1c-0.1-1.2-0.1-2.5,0-3l0.3-0.4L181.9,59.3L181.9,59.3z M164.6,31.7
	c0.7-0.3,1.2-0.8,1.8-1.2c0.6-0.4,1-0.8,1.5-1.5c0.3-0.3,0.5-1,0.9-1.4c1.7-1.9,4.3-4.4,7.1-7.6c0.5-0.5,0.7-1.2,1.1-1.8
	c0.4-0.5,0.9-1.1,1.3-1.5c1.6-2,2.7-2.5,3.8-3.9c1.5-1.7,3-3.5,3.4-3.9c0.8-0.8,1.6-1.5,2.1-2.1c0.4-0.7,1.1-1,1.5-0.9
	c0.3,0.1,0.7,1,0.7,1s1.4,1.5,1.7,2.2c0.3,0.7,0,1.6,0.1,2.2c0,0.3,0.3,1.6,0.9,2.3c0.6,0.6,1.5,0.8,2,1.1c0,0,1.6,0.1,1,1
	c-0.6,1-0.9,1-1.2,1.1c-0.5,0.1-0.9,0.3-1.3,0.3c-0.3,0-0.8,0-1.2,0c-1.7,0.3-6.2,0.8-10,3.3c-0.9,0.6-1.8,1.3-2.8,1.9
	c-0.8,0.6-1.6,1.1-2.4,1.7c-1,0.8-2.1,1.4-3,2.3c-0.4,0.4-0.6,0.9-1,1.2c-0.5,0.4-1,0.6-1.4,0.9c-0.5,0.4-0.9,0.8-1.4,1.2
	c-0.6,0.4-1.3,0.8-2,1.2c-0.6,0.3-1.2,0.6-1.8,1c-0.3,0.2-0.5,0.4-0.7,0.5c-0.6,0.3-0.8,0.5-0.5,1.2c0.1,0.3,0.2,0.4,0.5,0.5
	c0.7,0.1,3.1-0.5,6-2.1c2.9-1.6,5.4-2.9,5.4-2.9s2.4-1.6,3.1-2.1c0.6-0.5,0.8-0.1,0.8-0.1s0.7,0.6,0.5,0.9c-0.2,0.3-0.3,0.7-0.3,0.7
	s0.6,1.1,1.4,1.5c0.5,0.2,1.2-0.4,1.8-0.8c0.8-0.4,3-2.4,4.2-3.1c0.7-0.4,1.8-0.9,3-1.2c0.9-0.2,1.8-0.2,2.6-0.4
	c1.9-0.4,3.1-0.9,4.4-1.3c1.1-0.3,2.6-0.8,3,0.4c0,0,0.4,1.1,0.1,1.5c-0.3,0.4-0.8,1.2-0.8,1.9c0,0.7-1.4,4-1.6,5.6
	c-0.2,1.6-1.6,15.8-1.3,18.9c0.3,3.1,0.1,5.2,0,6c-0.1,0.8,0.2,7.7,0.2,8c0,0.3,0.4,12.8,0.3,14.1c-0.1,1.4,0,4.9,0,5.4
	c0,0.3,0,3.1-0.1,3.7c-0.1,0.7-0.8,1.1-1.3,1.2c-1.4,0.3-2.5,0.7-2.8,0.9c-0.2,0.2-1.8,0.4-2.5,0.3c-0.4,0-0.9-0.2-1.1-0.6
	c-0.3-0.4-0.6-1-0.8-1.7c-0.1-0.4-0.4-1-0.7-1.7c-0.4-0.9-0.9-2.1-1.8-3.4c-2-2.9-2.8-4.2-3-4.6c-0.1-0.2-0.1-0.2-0.1-0.5
	c0-0.6-0.1-1.7,0.2-1.7c0.2,0,1.2,0,2.3,0c0.9,0,1.7-0.1,2.2,0.1c0.2,0,0.6,0.6,1.3,1.1c0.6,0.5,1.2,0.9,1.7,0.8
	c0.4,0,1,0.4,1.7,0.1c0.7-0.3,0.4-0.9,0.4-1.4c0-0.3,0.8-10.1,0.7-12.8c0-1.8-0.3-7-0.4-11.1c0-2.1,0-3.9,0.1-4.8
	c0.4-2.7,0.6-7.7,0.8-8.8c0.2-1.1,0.7-7.2,1.1-8.6c0.4-1.5,0.6-2.4,0.7-2.8c0.3-0.9,0-1.7-0.5-1.3c-0.7,0.4-1.4,0.5-2.1,0.4
	c-1.1-0.2-1.7-0.9-2.2-1c-1-0.1-4.3,1.2-4.7,1.6c-0.5,0.4-2.3,2.8-3.2,3c-0.9,0.3-2.5,0.9-3.2,0.6c0,0-0.3-0.5-0.7-1
	c-0.3-0.5-1-1.1-1.9-1.1c-0.9,0-2.7,1.6-3.2,2.1c-0.5,0.5-0.7,1.1-0.7,1.1s1.9,0.3,2.6,0.3c3.6,0,3.2-0.1,4.1,3.3
	c0,0,2.1-0.1,2.8-0.3c0.7-0.3,0.9,0.8,0.9,0.8s-0.1,0.9-0.3,1.3c-0.3,0.4-2.3,2.8-3.2,3.6c-0.9,0.8-1.2,1.7-1.2,2.3s0.2,1.1,1,1.1
	c0.8,0.1,1.9-0.5,2.4,1.8c0,0,0.4,1.2,0.1,1.5c-0.3,0.3-1.5,1.3-1.9,1.5c-0.4,0.3-3.6,4.2-4.7,7.1c0,0-0.9,0.9,0,4.9
	c0.9,4,1,5.2,0.9,5.8c-0.1,0.5,0.6,3.2-3.3,5.9c0,0-1.7,1.4-3.2-1.1c0,0-1-1.3-0.9-3.5c0-1.4,0.1-2.1,0-2.4c0-0.3-0.1-0.3-0.4-0.2
	c-0.4,0-1.2,0.1-1.4,0.5c-0.3,0.5-0.5,1.7-0.7,2.4c-0.2,0.7-1.5,2.4-2.2,2.7c-0.5,0.2-0.8,0.2-1.2-0.1c-0.2-0.2-0.5-0.5-0.7-0.9
	c-0.2-0.4-0.6-0.8-0.8-1.2c-0.2-0.7,0-1.2,0.6-1.7c0,0,0.9-1.1,2-2.1c1.1-1.1,2-1.8,2.3-2.2c0.3-0.4,0.9-0.9,1.1-1.5
	c0.1-0.5,0.1-3.5,0.1-4.1c0,0-0.3-0.7-0.9-0.6c-0.5,0.1-1.1,0.2-1.2,1c-0.1,0.8-0.3,1.4-0.7,1.4c-0.5,0-2.5-0.5-2.6-1.8
	c-0.1-1.3,0.1-2.6,1-3.4c0,0,1.9-0.9,3.2-2.1c1.4-1.3,2.1-2.3,2.1-3.1c0.1-0.9,0.3-1,0.3-1s-1.6,0.5-2.5,1.2c-0.9,0.7-2.3,2-3,2.3
	c-0.7,0.3-1.3,0.7-1.7,0.5c-0.4-0.2-0.9-0.2-2.1-1.7c-1.2-1.5-2.4-1.7-3-2.9c-0.6-1.3,0.1-1.5,0.7-2c0.6-0.5,3-0.5,4-1.1
	c1-0.5,3.3-1.5,4.8-2.3c1.5-0.9,3.9-2.4,4.6-2.8c0.7-0.4,0.9-0.9,0.9-0.9l0.3-2.9c0,0-0.5-0.4-1.8-0.5c-1.3-0.1-1.3-0.7-5.3,0.7
	c0,0-1.9,0.7-3.2,0.7c-1.3,0-1.2-0.3-1.9-0.3c-0.7,0-1.7-0.1-2.4-0.3c-0.7-0.1-3-2.4-3.1-2.7c-0.1-0.3,2-0.2,3.2-0.4
	c1.2-0.3,2.5-0.5,3-0.8c0.2-0.1,0.4-0.2,0.6-0.4c0.3-0.2,0.5-0.4,0.7-0.5c0.2-0.1,0.3-0.1,0.6-0.1C164,31.9,164.1,32,164.6,31.7
	L164.6,31.7z M151.2,23c1-0.3,1.7-0.1,3.1-0.6c0.9-0.3,1.4-0.7,2.3-1.1c1-0.4,2.1-0.7,2.7-1.4c0,0,0.4-0.4,1-0.8
	c0.5-0.3,1.2-0.5,1.5-1.2c0.2-0.4,0-1-0.2-1.9c0-0.1,0-0.1,0-0.2c-0.1-0.3-0.3-0.5-0.2-0.7c0.1-1.1-0.5-2.5-0.2-3.4
	c0.2-0.6,0.8-0.9,1.5-1c0.4-0.1,0.7-0.3,1.2,0.2c0.4,0.4,1.4,2.1,1.8,2.4c0.4,0.4,1.4,0.8,1.7,1.1c0.4,0.2,1.8,1.4,1.6,2.5
	c0,0.3,0.1,1.1,0.2,1.4c0.1,0.3,0.4,0.2,0.5,0.3c0.2,0.3,0.6,1,0.8,1.5c0.2,0.5,0.9,1.1,0.1,1.8c-0.6,0.5-1.3,0.2-1.6,0.6
	c-0.1,0.2-0.1,0.6-0.4,1.1c-0.4,0.7-1.1,2.1-1.8,2.3c-0.8,0.3-1.7-0.5-2.3-0.5c-1,0.1-1.9,1-3,1.7c-1.1,0.7-3.5,2.2-3.7,2.6
	c-0.2,0.4-1,0.9-1.5,1.2c-0.5,0.2-1.2,0-1.7-0.6c-0.4-0.4-0.9-1.4-1.4-2.2c-0.2-0.3-0.3-0.7-0.5-0.8c-0.8-0.5-1.4-1.5-1.7-1.9
	c-0.2-0.2-0.9-0.6-1.1-1C149.5,24,150.5,23.3,151.2,23L151.2,23z"/>
<path class="st1" d="M324.7,56.3c0,0,1.7,0,2.3,0.5c0.4,0.3,2.9,2.9,3.3,3.3c0.5,0.5,1.8,0.4,3,1.4c0.8,0.7,1.4,2,2.1,3
	c0.6,0.8,1.4,1.5,1.8,1.8c1.3,1.3,3.6,5.6,2.6,6.7c-0.4,0.4-1.5,0.3-2.1,0.7c-1,0.7-2.5,1.5-3.2,1.9c-1.2,0.7-1.6,1.9-2.8,2.1
	c-1.1,0.2-1.7,0-2-1.1c-0.3-1.1-0.5-6.6-1.2-9C326.9,62.4,325.7,58.4,324.7,56.3L324.7,56.3z M282.2,51.2c0.8,0.1,2.1,0.7,3.1,0.4
	c1.1-0.3,9.7-2.4,13.3-4.1c3.5-1.8,4.9-2.2,5.7-2.7c0.8-0.5,2.9-1,3.4-3.3c0.5-2.3,1.5-7.3,1.6-9.4c0.1-2.1-0.1-5.1-0.2-6.3
	c-0.1-1.1-0.6-3.3-1.8-4.7c0,0-0.9-1.6-0.4-2.6c0.4-1,1.8-1.7,1.9-2.2c0.1-0.3,0.4-0.5,0.7-0.6c0.2-0.1,0.5,0,0.6,0
	c0.2,0,0.4,0.2,0.4,0.2c0.3,0.3,1.9,1.8,3.1,2.7c1.3,1,4.8,3.6,5.4,4.3c0.5,0.7,1.3,1.9,1.1,3.4c0,0-0.4,1.2-0.6,2.1
	c-0.2,0.9,0.6,2-0.1,2.6c-0.7,0.6-2,2.5-2.2,3.5c-0.2,1.1-0.2,2.2-0.1,2.8c0.1,0.6,0.3,1.4,0.3,1.4s0.5,0,1.2-0.4
	c0.7-0.4,2.3-1,3-1.5c0.4-0.3,1.7-0.7,2.7-1.5c0.6-0.5,0.8-1.2,1.4-1.7c0.4-0.3,0.9-0.4,1.2-0.6c0.4-0.3,0.8-0.5,1-0.7
	c0.3-0.3,0.4-0.6,0.5-0.8c0.3-0.5,0.1-0.9-0.2-1.2c-0.1-0.2-0.3-0.5-0.6-0.7c-0.2-0.2-0.4-0.5-0.7-0.8c-0.1-0.1-0.1-0.1-0.1-0.2
	l0-0.2c0-0.1,0.1-0.2,0.3-0.2c0.4,0.1,1.5,0.4,2.1,0.8c0.6,0.5,2.4,1.4,2.9,2c0.5,0.6,0.3,1.2-0.2,1.5c-0.3,0.2-1.6,0.9-2.8,1.6
	c-0.5,0.3-1.1,0.6-1.4,0.9c-0.5,0.5-1.3,1.1-1.9,2.1c-0.5,0.8-0.7,1.9-1.4,2.5c-1.6,1.2-4.3,2.3-5,3.1c-0.7,0.7-2.1,2-2.7,3.2
	c-0.6,1.1-0.7,2.4-1.2,2.7c-0.5,0.4-1.5,2.1-1.8,2.6c-0.4,0.5-0.6,3-1.1,4.5c-0.5,1.5-1,4.4-1,5.1c0,0.7-0.5,2.1-0.8,3.2
	c-0.4,1.1-1.2,3-3.6,4.1c0,0-1.9,0.8-2.9,1.6c-1,0.8-2,1.5-2.8,2.1c-0.8,0.6-2.3,1.8-6.8,2.4c-4.5,0.5-5.5,0.4-7.8,0.9
	c-2.1,0.4-5.8,1-6.8,1.1c-0.4,0.1-0.3-0.9,0.2-1c0.4-0.1,1.2-0.3,2-0.6c1.2-0.4,4.2-2.6,6.8-4.1c2.6-1.5,5.4-3.2,6.9-4.8
	c1.5-1.6,5.7-4.6,7-6.2c1.3-1.6,2.6-5.6,2.6-6.5c0,0-0.5-1.1-1.5-0.6c-1,0.5-4.8,3-6.1,3.6c-1.3,0.6-2.3,0.8-4.5,2.3
	c-2.2,1.5-3.5,2.9-5.2,2.4c-1.7-0.5-2.8-1.6-4.5-3c-0.9-0.8-2.5-2.2-3.3-3.6c-0.2-0.4-0.1-0.8,0.2-1.4
	C280.9,52.4,281.3,51.1,282.2,51.2L282.2,51.2z"/>
</svg>
